<svg width="456" height="422" viewBox="0 0 456 422" fill="none" xmlns="http://www.w3.org/2000/svg">
<path d="M230.059 10.7083C233.76 4.09586 240.745 6.10352e-05 248.323 6.10352e-05H427.61C443.533 6.10352e-05 453.624 17.0749 445.944 31.0235L236.77 410.958C233.09 417.642 226.065 421.793 218.435 421.793H35.6969C19.7097 421.793 9.62548 404.594 17.433 390.643L230.059 10.7083Z" fill="#00AA00"/>
<path d="M141.003 195.182C137.423 188.7 137.443 180.647 141.057 174.007L216.715 34.994C224.864 20.0214 245.523 20.1444 252.824 35.2089L337.077 209.051C340.128 215.346 339.93 222.886 336.549 229.156L267.051 358.047C259.185 372.636 239.262 373.114 231.415 358.903L141.003 195.182Z" fill="#3BB43B"/>
<path d="M266.802 358.452C258.874 372.935 238.081 372.964 230.113 358.503L49.666 31.0301C41.9799 17.0813 52.0705 -3.795e-05 67.9967 -3.64793e-05L427.707 -3.26141e-06C443.608 -1.79305e-06 453.701 17.0316 446.066 30.9792L266.802 358.452Z" fill="#2BC92B" fill-opacity="0.49"/>
</svg>
